<svg width="18" height="18" viewBox="0 0 18 18" fill="none" xmlns="http://www.w3.org/2000/svg">
<path d="M8 13V18H2C1.49542 18.0002 1.00943 17.8096 0.639452 17.4665C0.269471 17.1234 0.0428433 16.6532 0.00500011 16.15L0 16V13H8ZM18 10V16C18.0002 16.5046 17.8096 16.9906 17.4665 17.3605C17.1234 17.7305 16.6532 17.9572 16.15 17.995L16 18H10V10H18ZM8 7V11H0V7H8ZM16 1.00268e-07C16.5046 -0.000159579 16.9906 0.190406 17.3605 0.533497C17.7305 0.876588 17.9572 1.34684 17.995 1.85L18 2V8H10V1.00268e-07H16ZM8 1.00268e-07V5H0V2C0 1.46957 0.210714 0.960859 0.585786 0.585786C0.960859 0.210714 1.46957 1.00268e-07 2 1.00268e-07H8Z" fill="white"/>
</svg>
